# xmcd
#
# Track frame offsets: 
#        150
#        20757
#        36352
#        66277
#        82837
#        106612
#        127152
#        152702
#        178742
#        200835
#        217258
#        229770
#        246977
#        270862
#        292225
#        308194
#        324599
#
# Disc length: 4734 seconds
#
# Revision: 1
# Processed by: cddbd v1.5.2PL0 Copyright (c) Steve Scherf et al.
# Submitted via: ExactAudioCopy v1.1
#
DISCID=02127c11
DTITLE=Various Artist - Trail Of The Wolf - vol.06 - Good Whiskey Blu
DTITLE=es  CD2
DYEAR=2017
DGENRE=Blues
TTITLE0=Steve Gannon - Too Through With You
TTITLE1=Kent Earl Housman - Margaritha Drive
TTITLE2=Richard Waters and The Blues Boyz - Long Cold Lonely Winter
TTITLE3=Paris Slim - Molly‘s Backjard Blues
TTITLE4=Tim Wagoner and Wild Blue Yonder - Make it Rain
TTITLE5=Rocky Shelton - Twist of Fate
TTITLE6=Bird Dogs - Bye Bye Baby
TTITLE7=Gary Nicholson and The Change - I Got The Itch
TTITLE8=John Bloys and The Boogie Stew - I‘m Free
TTITLE9=Bill Wharton and The Ingredients - Swamp Boogie
TTITLE10=Kenny 'Blue' Ray - Squeezin
TTITLE11=Floyd Miles and Friends - Cold, Cold World
TTITLE12=Little Jonny and The Giants - Stranger Blues
TTITLE13=Terry Haggerty - Red House
TTITLE14=Diane Durrett - Blue Eyed Soul
TTITLE15=Johnny Charles - Texas Blues
TTITLE16=Little Kings - Reconsider Baby
EXTD=
EXTT0=
EXTT1=
EXTT2=
EXTT3=
EXTT4=
EXTT5=
EXTT6=
EXTT7=
EXTT8=
EXTT9=
EXTT10=
EXTT11=
EXTT12=
EXTT13=
EXTT14=
EXTT15=
EXTT16=
PLAYORDER=
